<svg width="24" height="24" viewBox="0 0 24 24" fill="none" xmlns="http://www.w3.org/2000/svg">
<path d="M17.6556 1.70894C17.6787 0.991383 17.6899 0.925997 17.8026 0.849901C17.8871 0.792406 17.9424 0.785079 17.9835 0.825663C18.0156 0.857792 18.0595 1.21911 18.0804 1.62833C18.1012 2.03756 18.1564 2.4992 18.2026 2.65421C18.2494 2.80922 18.3339 3.02455 18.3908 3.13334C18.4477 3.24212 18.5672 3.43208 18.6568 3.55609C18.7463 3.6801 18.9621 3.90218 19.1351 4.0493C19.3086 4.19642 19.5774 4.37849 19.7323 4.45345C19.8873 4.52842 20.1537 4.64003 20.3239 4.70091C20.4941 4.76235 20.7228 4.84013 20.831 4.87395C20.9391 4.90777 21.1042 4.93596 21.1972 4.93596C21.2902 4.93596 21.449 4.95512 21.5504 4.9788C21.7043 5.01431 21.7347 5.04756 21.7336 5.17665C21.733 5.26176 21.7133 5.33278 21.6902 5.33447C21.6671 5.3356 21.5212 5.34857 21.3662 5.36266C21.2113 5.37675 20.9324 5.42917 20.7465 5.47877C20.5605 5.52894 20.2687 5.62251 20.0985 5.68733C19.9284 5.75215 19.7509 5.83783 19.7041 5.87729C19.6574 5.91675 19.6005 5.94944 19.5774 5.95C19.5543 5.95113 19.3892 6.06274 19.2112 6.19915C19.0331 6.33499 18.8303 6.51255 18.7604 6.59372C18.6906 6.67432 18.5548 6.88683 18.4584 7.06495C18.3615 7.24307 18.2353 7.54125 18.1773 7.72726C18.0928 7.99895 18.0719 8.24302 18.0719 8.96734C18.0719 9.62345 18.0528 9.88725 18.0009 9.9346C17.9615 9.97067 17.8832 9.98364 17.8269 9.96278C17.7699 9.94249 17.7142 9.87485 17.7023 9.81285C17.6899 9.75084 17.6697 9.2689 17.6567 8.74187C17.637 7.93131 17.615 7.73797 17.5136 7.4877C17.4482 7.3248 17.3305 7.09031 17.2533 6.9663C17.1755 6.8423 17.0048 6.62415 16.873 6.48211C16.7412 6.3395 16.4814 6.12756 16.2955 6.01088C16.1096 5.8942 15.8938 5.77921 15.8166 5.75554C15.7388 5.73186 15.6504 5.69297 15.6194 5.66929C15.5884 5.64562 15.3726 5.57516 15.1405 5.51259C14.9084 5.45059 14.5596 5.38408 14.3658 5.36548C14.0199 5.33222 14.0137 5.32884 14.0137 5.16255C14.0137 4.99796 14.0227 4.99232 14.3376 4.96132C14.5157 4.94329 14.8582 4.88015 15.0982 4.82041C15.3383 4.76066 15.5918 4.68231 15.6617 4.64623C15.7315 4.61072 15.8267 4.55999 15.8729 4.5335C15.9191 4.50757 16.0205 4.45796 16.0983 4.42414C16.1755 4.39032 16.3856 4.2449 16.5654 4.10003C16.7445 3.95573 16.8905 3.82496 16.8893 3.80974C16.8882 3.79396 16.9592 3.70546 17.0471 3.61246C17.1344 3.51945 17.2539 3.35486 17.3113 3.24607C17.3694 3.13728 17.4646 2.92196 17.5232 2.76695C17.6021 2.55783 17.6364 2.28445 17.6556 1.70894Z" fill="#F3F3F3"/>
<path d="M2.0008 5.24434C1.99516 5.21164 2.01995 5.16091 2.05545 5.1316C2.09545 5.09835 3.69104 5.08876 6.27767 5.10624C10.181 5.13273 10.4357 5.14062 10.4497 5.23306C10.4604 5.30634 10.4109 5.34185 10.2531 5.37173C10.137 5.39427 9.98493 5.45741 9.91506 5.51264C9.8452 5.56845 9.74942 5.7088 9.70266 5.82492C9.65533 5.94104 9.61702 6.16932 9.61815 6.33222C9.61871 6.49512 9.65815 6.79951 9.70491 7.00863C9.75224 7.21775 9.8283 7.48437 9.87394 7.60048C9.92014 7.7166 10.0001 7.91952 10.052 8.05142C10.1038 8.18332 10.2334 8.4815 10.3388 8.71374C10.4441 8.94653 10.5647 9.21259 10.6064 9.30559C10.6475 9.3986 10.7743 9.67761 10.8875 9.92563C11.0008 10.1736 11.1422 10.4842 11.2013 10.6161C11.2611 10.748 11.358 10.9633 11.4171 11.0952C11.4768 11.2271 11.6047 11.5124 11.7022 11.7294C11.7991 11.9464 11.9135 12.2 11.9552 12.2931C11.9974 12.3861 12.0836 12.576 12.1462 12.7158C12.2093 12.8556 12.3507 13.1662 12.4611 13.4063C12.5716 13.6464 12.6617 13.8561 12.6617 13.8713C12.6617 13.8865 12.7783 14.147 12.9203 14.4491C13.0623 14.7512 13.2246 15.1001 13.2809 15.2241C13.3372 15.3482 13.4212 15.5387 13.4674 15.6469C13.5141 15.7557 13.6156 15.984 13.6933 16.1542C13.7711 16.3244 13.9266 16.6671 14.0387 16.9152C14.1508 17.1632 14.2415 17.4168 14.241 17.4788C14.241 17.5408 14.1891 17.693 14.1266 17.817C14.064 17.941 14.0122 18.0679 14.0116 18.0989C14.0105 18.1299 13.9609 18.2567 13.9012 18.3807C13.8415 18.5047 13.7908 18.6445 13.7885 18.6907C13.7868 18.7375 13.7474 18.826 13.7012 18.888C13.655 18.95 13.6178 19.0323 13.6184 19.0712C13.6189 19.1101 13.5834 19.224 13.5389 19.3249C13.495 19.4258 13.406 19.6287 13.3417 19.7758C13.2775 19.9229 13.2251 20.0565 13.2251 20.0717C13.2251 20.0869 13.1846 20.1952 13.1355 20.3113C13.086 20.4274 12.9981 20.6241 12.9395 20.7481C12.8814 20.8721 12.833 21.0052 12.8319 21.0441C12.8313 21.0829 12.8054 21.159 12.775 21.2132C12.7445 21.2673 12.6071 21.5908 12.4701 21.9318C12.3332 22.2729 12.1682 22.6725 12.1034 22.8196C12.0386 22.9667 11.9349 23.1127 11.8729 23.1437C11.811 23.1747 11.6842 23.2001 11.5912 23.2001C11.4983 23.2001 11.3653 23.177 11.2954 23.1488C11.2087 23.1139 11.0988 22.9397 10.9478 22.5992C10.8267 22.3253 10.6706 21.9741 10.6013 21.8191C10.532 21.6641 10.3297 21.2205 10.1528 20.8327C9.97535 20.4454 9.73252 19.919 9.61251 19.6631C9.49194 19.4072 9.39391 19.1851 9.39391 19.1698C9.39391 19.1546 9.25475 18.8564 9.08516 18.5075C8.91557 18.1586 8.77584 17.8542 8.77528 17.8311C8.77472 17.808 8.64739 17.5222 8.49245 17.197C8.33751 16.8718 8.21074 16.5922 8.21074 16.577C8.21074 16.5617 8.10651 16.3267 7.97918 16.0556C7.85185 15.7844 7.67212 15.3978 7.57972 15.196C7.48788 14.9947 7.36618 14.7281 7.30928 14.6041C7.25237 14.4801 7.12786 14.2073 7.03208 13.9982C6.93686 13.789 6.85967 13.5985 6.8608 13.5754C6.86249 13.5523 6.82305 13.4954 6.77404 13.4486C6.72502 13.4024 6.68558 13.3325 6.68727 13.2936C6.6884 13.2547 6.5605 12.9503 6.40218 12.6172C6.24443 12.284 6.08216 11.9351 6.0416 11.8421C6.00103 11.7491 5.88666 11.4955 5.78694 11.2784L5.40945 10.4611C5.30184 10.2289 5.12549 9.84841 5.01675 9.61561C4.90858 9.38338 4.76772 9.07899 4.70462 8.9392C4.64152 8.79941 4.50235 8.4956 4.39643 8.2628C4.28995 8.03057 4.00824 7.44717 3.76992 6.96692C3.41835 6.25725 3.27355 6.02728 2.99917 5.74319C2.76535 5.50081 2.61774 5.39258 2.52027 5.39146C2.44251 5.39033 2.29659 5.37004 2.19518 5.34636C2.09376 5.32269 2.00587 5.27703 2.0008 5.24434Z" fill="#F3F3F3"/>
</svg>
