<svg width="128" height="40" viewBox="0 0 128 40" fill="none" xmlns="http://www.w3.org/2000/svg">
<path d="M7.63805 7.68945C14.6062 7.73675 15.0629 7.75107 15.0882 7.91602C15.1073 8.04677 15.0191 8.10976 14.7377 8.16309C14.5306 8.20331 14.259 8.31646 14.1341 8.41504C14.0094 8.51466 13.8378 8.76534 13.7543 8.97266C13.6698 9.17998 13.6019 9.58804 13.6039 9.87891C13.6049 10.1698 13.6747 10.7136 13.7582 11.0869C13.8427 11.4602 13.9794 11.9362 14.0609 12.1436C14.1434 12.3508 14.2858 12.7128 14.3783 12.9482C14.4708 13.1838 14.7019 13.7171 14.89 14.1318C15.0781 14.5474 15.294 15.0223 15.3685 15.1885C15.4421 15.3548 15.6684 15.8533 15.8705 16.2959C16.0726 16.7386 16.3254 17.2928 16.431 17.5283C16.5376 17.7637 16.7101 18.1482 16.8158 18.3838C16.9224 18.6193 17.1515 19.1291 17.3255 19.5166C17.4985 19.904 17.7022 20.3573 17.7767 20.5234C17.8522 20.6896 18.0059 21.0288 18.1175 21.2783C18.2302 21.5279 18.4829 22.0821 18.68 22.5107C18.8769 22.9387 19.0378 23.3134 19.0384 23.3418C19.0405 23.3732 19.2481 23.8363 19.5004 24.373C19.7537 24.9122 20.0431 25.535 20.1439 25.7568C20.2444 25.9781 20.3944 26.3184 20.4769 26.5117C20.5604 26.706 20.7424 27.114 20.8812 27.418C21.02 27.7219 21.2973 28.3336 21.4974 28.7764C21.6975 29.2189 21.8595 29.672 21.8587 29.7832C21.8587 29.8939 21.7663 30.1663 21.6546 30.3877C21.5431 30.6088 21.4508 30.835 21.4496 30.8906C21.4475 30.9461 21.3588 31.1724 21.2523 31.3936C21.1458 31.6147 21.0554 31.8644 21.0511 31.9473C21.0481 32.0308 20.9773 32.1891 20.8949 32.2998C20.8125 32.4104 20.7465 32.5574 20.7474 32.627C20.7483 32.6965 20.6842 32.9001 20.6048 33.0801C20.5264 33.2603 20.3679 33.6223 20.2533 33.8848C20.1393 34.1459 20.0454 34.3835 20.0443 34.4131C20.0443 34.4402 19.9725 34.6337 19.8851 34.8408C19.7966 35.0481 19.6392 35.3996 19.5345 35.6211C19.4312 35.842 19.3446 36.0793 19.3421 36.1494C19.3411 36.2188 19.2949 36.3555 19.2406 36.4521C19.1858 36.55 18.9408 37.1273 18.6966 37.7354C18.4522 38.3441 18.1571 39.0575 18.0414 39.3203C17.9257 39.5829 17.7409 39.8439 17.6302 39.8994C17.5196 39.9547 17.2933 39.9999 17.1273 40C16.9614 40 16.7238 39.9585 16.599 39.9082C16.444 39.8458 16.2475 39.5347 15.9779 38.9268C15.7617 38.4379 15.4836 37.8112 15.3597 37.5342C15.2359 37.2573 14.8738 36.4649 14.558 35.7725C14.2411 35.081 13.8074 34.1405 13.5931 33.6836C13.3779 33.2268 13.2035 32.8299 13.2035 32.8027C13.2014 32.7714 12.9533 32.2405 12.6517 31.6201C12.3489 30.9972 12.1 30.4534 12.099 30.4121C12.0965 30.3679 11.8689 29.8591 11.5931 29.2803C11.3166 28.6998 11.0904 28.2005 11.0902 28.1729C11.0895 28.1443 10.904 27.7253 10.6771 27.2422C10.4498 26.7581 10.1282 26.0674 9.96324 25.707C9.79925 25.3477 9.58243 24.8708 9.48082 24.6494C9.37912 24.4278 9.15663 23.9406 8.9857 23.5674C8.81577 23.1941 8.67803 22.8538 8.68004 22.8125C8.68237 22.7709 8.61181 22.67 8.52477 22.5869C8.43725 22.5044 8.36647 22.379 8.36949 22.3096C8.37106 22.2393 8.14315 21.6959 7.8607 21.1016C7.57909 20.5069 7.28964 19.884 7.21715 19.7178C7.14467 19.5516 6.94011 19.0984 6.76207 18.7109C6.583 18.3234 6.28035 17.6675 6.08824 17.252C5.89613 16.8374 5.58124 16.1579 5.38707 15.7422C5.19394 15.3276 4.94216 14.7839 4.82945 14.5342C4.71677 14.2846 4.46876 13.7418 4.27965 13.3262C4.08946 12.9114 3.58605 11.8692 3.16051 11.0117C2.53298 9.74505 2.2742 9.33422 1.78453 8.82715C1.36723 8.39457 1.10311 8.20044 0.929062 8.19824C0.790233 8.19623 0.529102 8.16043 0.348007 8.11816C0.167058 8.07587 0.0103765 7.99389 0.00132751 7.93555C-0.00834683 7.87715 0.035807 7.78654 0.0989838 7.73438C0.179082 7.67522 3.02667 7.6583 7.63805 7.68945ZM41.0834 17.9971C43.1204 17.9971 44.9102 18.4634 46.4525 19.3945C48.024 20.2967 49.2474 21.5478 50.1205 23.1484C51.0226 24.72 51.473 26.5105 51.473 28.5186C51.473 28.8969 51.4443 29.2899 51.3861 29.6973C51.357 30.0756 51.2837 30.5121 51.1673 31.0068L35.7484 31.0449C35.8601 31.4795 36.0078 31.8889 36.1937 32.2725C36.6885 33.2037 37.3873 33.9322 38.2894 34.4561C39.1914 34.9505 40.2392 35.1982 41.432 35.1982C42.5087 35.1982 43.4847 35.023 44.3578 34.6738C45.2306 34.2955 45.9872 33.7421 46.6273 33.0146L49.9886 36.377C48.9702 37.5699 47.7187 38.4719 46.2347 39.083C44.7796 39.6942 43.193 40 41.4759 40C39.2642 40 37.2994 39.5347 35.5824 38.6035C33.8653 37.6431 32.4975 36.3327 31.4789 34.6738C30.4894 33.015 29.9946 31.1234 29.9945 28.999C29.9945 26.9037 30.4747 25.0409 31.4349 23.4111C32.4245 21.7522 33.7635 20.4419 35.4515 19.4814C37.1395 18.492 39.0171 17.9971 41.0834 17.9971ZM92.308 39.5635H86.6322V37.6465C86.0796 38.1932 85.4395 38.6586 84.7113 39.04C83.4891 39.6802 82.1209 40 80.6078 40C78.6579 40 76.911 39.5199 75.3685 38.5596C73.8262 37.5992 72.6037 36.2886 71.7015 34.6299C70.8286 32.9711 70.392 31.1081 70.392 29.042C70.392 26.9468 70.8286 25.0699 71.7015 23.4111C72.6037 21.7522 73.8122 20.4419 75.3255 19.4814C76.868 18.5212 78.6289 18.041 80.6078 18.041C82.1209 18.0411 83.4742 18.3469 84.6673 18.958C85.3953 19.322 86.0358 19.774 86.5882 20.3135V8H92.308V39.5635ZM116.141 18.041C117.654 18.0411 119.008 18.3469 120.202 18.958C120.995 19.3644 121.679 19.8807 122.253 20.5059V18.4775H127.928V39.5635H122.253V37.5146C121.679 38.1337 120.995 38.6571 120.202 39.083C119.008 39.6942 117.654 40 116.141 40C114.22 40 112.488 39.5199 110.946 38.5596C109.403 37.5992 108.196 36.2887 107.323 34.6299C106.45 32.9711 106.013 31.1082 106.013 29.042C106.013 26.9468 106.45 25.0699 107.323 23.4111C108.196 21.7523 109.403 20.4419 110.946 19.4814C112.488 18.5211 114.22 18.041 116.141 18.041ZM65.7494 18.041C66.7679 18.0411 67.6855 18.2152 68.5004 18.5645C69.3151 18.8846 70.0577 19.4231 70.7269 20.1797L67.1468 24.2842C66.8268 23.9351 66.4336 23.6727 65.9681 23.498C65.5316 23.3235 65.0218 23.2364 64.4398 23.2363C63.2176 23.2364 62.2138 23.6294 61.4281 24.415C60.6714 25.1717 60.2924 26.3356 60.2923 27.9072V39.5635H54.5736V18.4775H60.2923V20.3652C60.3071 20.3474 60.3214 20.3292 60.3363 20.3115C61.5877 18.7982 63.3921 18.0411 65.7494 18.041ZM102.693 39.5635H96.93V18.4775H102.693V39.5635ZM81.6117 23.3232C80.535 23.3233 79.5886 23.5708 78.7738 24.0654C77.9882 24.5601 77.3624 25.2295 76.8968 26.0732C76.4603 26.9173 76.2425 27.8931 76.2425 28.999C76.2426 30.1338 76.4604 31.1378 76.8968 32.0107C77.3625 32.8547 78.0029 33.5248 78.8177 34.0195C79.6324 34.485 80.5494 34.7177 81.5677 34.7178C82.6445 34.7177 83.5769 34.4852 84.3627 34.0195C85.1774 33.5248 85.8031 32.8546 86.2396 32.0107C86.7051 31.1378 86.9378 30.1338 86.9379 28.999C86.9379 27.8932 86.7052 26.9172 86.2396 26.0732C85.8032 25.2005 85.1772 24.531 84.3627 24.0654C83.5769 23.5707 82.6593 23.3233 81.6117 23.3232ZM117.189 23.3232C116.141 23.3233 115.21 23.5708 114.395 24.0654C113.609 24.5311 112.984 25.2011 112.518 26.0742C112.081 26.9182 111.863 27.8932 111.863 28.999C111.863 30.1339 112.081 31.1377 112.518 32.0107C112.984 32.8547 113.609 33.5248 114.395 34.0195C115.21 34.485 116.141 34.7178 117.189 34.7178C118.789 34.7177 120.085 34.1941 121.075 33.1465C122.064 32.0697 122.559 30.6868 122.559 28.999C122.559 27.8933 122.325 26.9181 121.86 26.0742C121.423 25.2012 120.798 24.5311 119.983 24.0654C119.197 23.5708 118.265 23.3233 117.189 23.3232ZM41.0834 22.7559C39.9484 22.7559 38.9586 23.0182 38.1146 23.542C37.2707 24.0367 36.6154 24.7494 36.1498 25.6807C35.9866 26.0178 35.8545 26.3797 35.7523 26.7656L45.9584 26.7354C45.8432 26.235 45.6886 25.7811 45.4925 25.375C45.1142 24.5312 44.5459 23.8906 43.7894 23.4541C43.062 22.9887 42.1598 22.7559 41.0834 22.7559ZM28.2191 0.0888672C28.3699 -0.0137016 28.4689 -0.0265145 28.5423 0.0458984C28.5997 0.104775 28.678 0.748972 28.7152 1.47852C28.7524 2.20903 28.8515 3.03346 28.9339 3.31055C29.0174 3.58721 29.1683 3.97166 29.2699 4.16602C29.3714 4.36018 29.5846 4.69945 29.7445 4.9209C29.9045 5.14233 30.2901 5.53905 30.599 5.80176C30.9089 6.06446 31.3887 6.38957 31.6654 6.52344C31.942 6.65726 32.4172 6.8571 32.7211 6.96582C33.0249 7.07553 33.4341 7.21402 33.6273 7.27441C33.8203 7.33473 34.1146 7.38567 34.2806 7.38574C34.4466 7.38575 34.7304 7.41968 34.9115 7.46191C35.186 7.52531 35.2406 7.58507 35.2386 7.81543C35.2376 7.96693 35.2026 8.09305 35.1615 8.09668C35.1202 8.09869 34.859 8.1223 34.5824 8.14746C34.3057 8.17268 33.8078 8.26597 33.4759 8.35449C33.144 8.44407 32.6225 8.6118 32.3187 8.72754C32.0152 8.84321 31.6983 8.99593 31.6146 9.06641C31.5312 9.13675 31.4293 9.1952 31.388 9.19629C31.3453 9.19957 31.0514 9.398 30.7347 9.64062C30.417 9.88303 30.055 10.2006 29.93 10.3457C29.8053 10.4896 29.562 10.8695 29.39 11.1875C29.217 11.5056 28.9917 12.0381 28.888 12.3701C28.7372 12.8551 28.7006 13.2912 28.7005 14.584C28.7005 15.7546 28.666 16.2264 28.5736 16.3115C28.5032 16.3759 28.3627 16.3995 28.2621 16.3623C28.1605 16.326 28.0615 16.2044 28.0404 16.0938C28.0182 15.9813 27.9815 15.1216 27.9584 14.1816C27.9232 12.7348 27.8844 12.3891 27.7035 11.9424C27.5868 11.6515 27.3765 11.2322 27.2386 11.0107C27.0998 10.7893 26.7943 10.4001 26.5589 10.1465C26.3235 9.89183 25.8597 9.51302 25.5277 9.30469C25.196 9.09657 24.8113 8.89114 24.6732 8.84863C24.5345 8.80641 24.3762 8.7376 24.3207 8.69531C24.2653 8.65302 23.8796 8.52675 23.4652 8.41504C23.0508 8.30438 22.4285 8.1856 22.0824 8.15234C21.4647 8.09296 21.4535 8.08694 21.4535 7.79004C21.4535 7.49631 21.4695 7.486 22.0316 7.43066C22.3496 7.39844 22.9614 7.28539 23.39 7.17871C23.8183 7.07209 24.2708 6.93263 24.3959 6.86816C24.5206 6.80475 24.6913 6.71428 24.7738 6.66699C24.8564 6.62064 25.0375 6.532 25.1761 6.47168C25.3142 6.41104 25.6894 6.15107 26.0101 5.89258C26.3299 5.635 26.5903 5.40119 26.5882 5.37402C26.5875 5.34475 26.7143 5.18773 26.8705 5.02246C27.0263 4.85643 27.2395 4.56238 27.3421 4.36816C27.4458 4.17385 27.6155 3.78845 27.7201 3.51172C27.8608 3.13838 27.9222 2.65014 27.9564 1.62305C27.9976 0.342091 28.018 0.224714 28.2191 0.0888672ZM99.8119 8.52441C100.772 8.52453 101.543 8.84424 102.125 9.48438C102.736 10.1245 103.042 10.8959 103.042 11.7979C103.042 12.729 102.736 13.515 102.125 14.1553C101.543 14.7664 100.772 15.0722 99.8119 15.0723C98.8807 15.0723 98.1095 14.7663 97.4984 14.1553C96.8872 13.515 96.5814 12.7291 96.5814 11.7979C96.5815 10.8958 96.8873 10.1246 97.4984 9.48438C98.1095 8.84433 98.8807 8.52441 99.8119 8.52441Z" fill="white"/>
</svg>
