<svg width="103" height="32" viewBox="0 0 103 32" fill="none" xmlns="http://www.w3.org/2000/svg">
<path d="M32.8663 14.3984C34.496 14.3985 35.9283 14.7706 37.1622 15.5156C38.4195 16.2374 39.3973 17.239 40.0958 18.5195C40.8175 19.7768 41.1778 21.209 41.1778 22.8154C41.1778 23.1178 41.155 23.4322 41.1085 23.7578C41.0852 24.0603 41.0267 24.4101 40.9337 24.8057L28.5987 24.8359C28.688 25.1836 28.8055 25.5115 28.9542 25.8184C29.35 26.5633 29.9093 27.1464 30.631 27.5654C31.3526 27.9611 32.1912 28.1591 33.1456 28.1592C34.0069 28.1592 34.7871 28.0185 35.4854 27.7393C36.1837 27.4366 36.7897 26.994 37.3018 26.4121L39.9913 29.1016C39.1764 30.056 38.1747 30.7787 36.9874 31.2676C35.8235 31.7563 34.5541 32.0009 33.1808 32.001C31.4115 32.0009 29.8395 31.6278 28.4659 30.8828C27.0923 30.1145 25.9976 29.0663 25.1827 27.7393C24.3912 26.4123 23.9953 24.8986 23.9952 23.1992C23.9952 21.5233 24.3796 20.0331 25.1476 18.7295C25.939 17.4026 27.0104 16.3542 28.3604 15.5859C29.7108 14.7944 31.2134 14.3985 32.8663 14.3984ZM73.8458 31.6514H69.3058V30.1152C68.8634 30.5531 68.3518 30.927 67.7686 31.2324C66.7909 31.7444 65.6959 32.001 64.4854 32.001C62.9258 32.0008 61.5288 31.6159 60.295 30.8477C59.0612 30.0794 58.0831 29.032 57.3614 27.7051C56.663 26.378 56.3136 24.8874 56.3136 23.2344C56.3136 21.5582 56.6631 20.0565 57.3614 18.7295C58.0831 17.4025 59.0494 16.3543 60.2599 15.5859C61.4937 14.8177 62.9025 14.4337 64.4854 14.4336C65.696 14.4336 66.779 14.6782 67.7335 15.167C68.3166 15.4585 68.8282 15.8216 69.2706 16.2539V6.40039H73.8458V31.6514ZM92.9122 14.4336C94.1228 14.4336 95.2057 14.6782 96.1602 15.167C96.7955 15.4924 97.3419 15.9066 97.8018 16.4072V14.7822H102.342V31.6514H97.8018V30.0098C97.3418 30.5054 96.7956 30.9266 96.1602 31.2676C95.2058 31.7562 94.1226 32.001 92.9122 32.001C91.3759 32.0009 89.9907 31.6158 88.7569 30.8477C87.5231 30.0794 86.556 29.032 85.8575 27.7051C85.1591 26.378 84.8097 24.8874 84.8097 23.2344C84.8097 21.5583 85.1593 20.0564 85.8575 18.7295C86.5559 17.4025 87.5231 16.3543 88.7569 15.5859C89.9907 14.8178 91.3759 14.4337 92.9122 14.4336ZM6.11142 6.15137C11.6751 6.18913 12.0498 6.20079 12.0714 6.33203C12.0867 6.43669 12.0154 6.4876 11.7901 6.53027C11.6247 6.56243 11.4078 6.65268 11.3077 6.73145C11.208 6.81106 11.0709 7.01198 11.004 7.17773C10.9365 7.34342 10.8814 7.66968 10.8829 7.90234C10.8837 8.13496 10.9402 8.57041 11.0069 8.86914C11.0745 9.16767 11.1839 9.54879 11.2491 9.71484C11.3151 9.88061 11.429 10.1701 11.503 10.3584C11.577 10.5467 11.7617 10.973 11.9122 11.3047C12.0626 11.637 12.2353 12.0172 12.295 12.1504C12.3537 12.2832 12.5347 12.6819 12.6964 13.0361C12.858 13.3901 13.06 13.8337 13.1446 14.0225C13.2299 14.2108 13.3687 14.5186 13.4532 14.707C13.5385 14.8954 13.7212 15.3033 13.8604 15.6133C13.9987 15.9228 14.162 16.2847 14.2218 16.418C14.2821 16.5508 14.4049 16.8228 14.4942 17.0225C14.5844 17.2221 14.7867 17.6659 14.9444 18.0088C15.1011 18.3495 15.2298 18.6476 15.2315 18.6729C15.2315 18.6946 15.398 19.0666 15.6007 19.498C15.8033 19.9293 16.0346 20.4279 16.1153 20.6055C16.1957 20.7823 16.3159 21.0542 16.3819 21.209C16.4487 21.3643 16.5941 21.6914 16.7052 21.9346C16.8163 22.1778 17.0383 22.6674 17.1983 23.0215C17.358 23.3748 17.4875 23.7364 17.4874 23.8262C17.4874 23.9146 17.4135 24.1325 17.3243 24.3096C17.2355 24.4857 17.1609 24.6664 17.1593 24.7119C17.1577 24.7562 17.0873 24.9382 17.002 25.1152C16.917 25.2918 16.8445 25.4911 16.8409 25.5576C16.8391 25.6078 16.8067 25.6923 16.7628 25.7686L16.669 25.9111C16.6266 25.9838 16.5974 26.0599 16.5977 26.1016C16.5984 26.1573 16.5479 26.3201 16.4845 26.4639C16.4217 26.6079 16.2939 26.8974 16.2022 27.1074C16.1115 27.3153 16.0378 27.5052 16.0362 27.5303C16.0362 27.552 15.9782 27.7073 15.9083 27.873C15.8375 28.0388 15.7117 28.3199 15.628 28.4971C15.5454 28.6737 15.4767 28.8638 15.4747 28.9199C15.4738 28.9755 15.436 29.084 15.3927 29.1611C15.3492 29.2386 15.1526 29.7007 14.9571 30.1875C14.7617 30.6743 14.5264 31.2454 14.4337 31.4561C14.3413 31.6658 14.1932 31.8741 14.1046 31.9189C14.0161 31.9632 13.835 31.9999 13.7022 32C13.5695 32 13.3792 31.967 13.2794 31.9268C13.1555 31.8768 12.998 31.6278 12.7823 31.1416C12.6093 30.7503 12.3871 30.2477 12.2882 30.0264C12.1889 29.8044 11.8991 29.1707 11.6466 28.6172C11.3932 28.0643 11.0465 27.3128 10.8751 26.9473C10.7029 26.5818 10.5626 26.2639 10.5626 26.2422C10.5602 26.2158 10.363 25.7913 10.1222 25.2959C9.88072 24.7991 9.68084 24.3655 9.6788 24.3301C9.67651 24.2941 9.49587 23.8865 9.27548 23.4238C9.05427 22.9595 8.87226 22.56 8.87216 22.5381C8.87037 22.5127 8.72288 22.1779 8.54208 21.793C8.3602 21.4057 8.10275 20.8536 7.97079 20.5654C7.83964 20.278 7.66633 19.8969 7.58505 19.7197C7.50371 19.5425 7.3253 19.153 7.18857 18.8545C7.05261 18.5559 6.94282 18.283 6.94443 18.25C6.94613 18.2167 6.88988 18.1357 6.8204 18.0693C6.75052 18.0034 6.69407 17.9032 6.69638 17.8477C6.69703 17.7903 6.51474 17.3555 6.28915 16.8809C6.06399 16.4054 5.83161 15.9075 5.77353 15.7744C5.71545 15.6413 5.55258 15.2785 5.41025 14.9688C5.26696 14.6587 5.02486 14.1332 4.87119 13.8008C4.71748 13.4691 4.46494 12.9262 4.30966 12.5938C4.15518 12.2621 3.95449 11.8266 3.86435 11.627C3.77417 11.4272 3.57513 10.9935 3.42392 10.6611C3.27168 10.3292 2.86876 9.49541 2.52841 8.80957C2.0264 7.79624 1.81959 7.4672 1.42783 7.06152C1.09397 6.71547 0.882476 6.56027 0.743256 6.55859C0.632228 6.55696 0.424186 6.52791 0.279388 6.49414C0.134516 6.46032 0.00831179 6.39534 0.00106812 6.34863C-0.0066796 6.30194 0.0286864 6.22925 0.0791931 6.1875C0.142694 6.14016 2.4216 6.12644 6.11142 6.15137ZM52.5997 14.4336C53.4144 14.4336 54.1481 14.5733 54.7999 14.8525C55.4517 15.1087 56.0457 15.5393 56.5811 16.1445L53.7169 19.4277C53.4608 19.1484 53.146 18.9385 52.7735 18.7988C52.4245 18.6593 52.0171 18.5899 51.5518 18.5898C50.5742 18.5899 49.7702 18.9037 49.1417 19.5322C48.5366 20.1376 48.2335 21.0692 48.2335 22.3262V31.6514H43.6583V14.7822H48.2335V16.292C48.2451 16.2779 48.2569 16.263 48.2686 16.249C49.2697 15.0385 50.7141 14.4337 52.5997 14.4336ZM82.1544 31.6514H77.544V14.7822H82.1544V31.6514ZM65.2892 18.6592C64.4278 18.6592 63.6705 18.8572 63.0186 19.2529C62.3903 19.6487 61.8891 20.1844 61.5167 20.8594C61.1677 21.5344 60.9933 22.3148 60.9933 23.1992C60.9933 24.1071 61.1675 24.911 61.5167 25.6094C61.8892 26.2845 62.402 26.82 63.0538 27.2158C63.7056 27.5883 64.4393 27.7743 65.254 27.7744C66.1153 27.7744 66.8608 27.5882 67.4893 27.2158C68.1411 26.8201 68.6421 26.2844 68.9913 25.6094C69.3638 24.911 69.5499 24.1071 69.5499 23.1992C69.5499 22.3146 69.3638 21.5345 68.9913 20.8594C68.6421 20.1609 68.1413 19.6255 67.4893 19.2529C66.8608 18.8572 66.1272 18.6592 65.2892 18.6592ZM93.7511 18.6592C92.9131 18.6592 92.1675 18.8572 91.5157 19.2529C90.8873 19.6254 90.3862 20.1611 90.0138 20.8594C89.6647 21.5344 89.4904 22.3147 89.4903 23.1992C89.4904 24.1071 89.6646 24.911 90.0138 25.6094C90.3863 26.2845 90.8872 26.82 91.5157 27.2158C92.1675 27.5882 92.9131 27.7744 93.7511 27.7744C95.0313 27.7743 96.068 27.3554 96.8595 26.5176C97.651 25.6562 98.0469 24.5495 98.047 23.1992C98.0469 22.3146 97.8599 21.5345 97.4874 20.8594C97.1382 20.161 96.6373 19.6254 95.9854 19.2529C95.357 18.8574 94.6122 18.6592 93.7511 18.6592ZM32.8663 18.2051C31.9584 18.2051 31.1664 18.4149 30.4913 18.834C29.8164 19.2297 29.2924 19.8002 28.92 20.5449C28.7897 20.8144 28.6824 21.1037 28.6007 21.4121L36.7657 21.3887C36.6736 20.9885 36.5504 20.6256 36.3936 20.3008C36.091 19.6256 35.6367 19.1129 35.0313 18.7637C34.4494 18.3913 33.7275 18.2051 32.8663 18.2051ZM22.5753 0.0712891C22.6957 -0.0105671 22.7754 -0.0215301 22.8341 0.0361328C22.8799 0.0820118 22.943 0.598323 22.9727 1.18262C23.0025 1.76689 23.0816 2.42662 23.1476 2.64844C23.2143 2.86973 23.3348 3.17751 23.4161 3.33301C23.4973 3.4883 23.6681 3.75939 23.796 3.93652C23.9239 4.11364 24.2325 4.43143 24.4796 4.6416C24.7274 4.85162 25.1108 5.11158 25.3321 5.21875C25.5534 5.32584 25.9348 5.48529 26.1778 5.57227C26.4206 5.65993 26.7468 5.77095 26.9015 5.81934C27.0559 5.86763 27.2921 5.90817 27.4249 5.9082C27.5577 5.90822 27.7849 5.93592 27.9298 5.96973C28.1492 6.0204 28.193 6.06797 28.1915 6.25195C28.1907 6.37339 28.1619 6.47488 28.129 6.47754C28.0949 6.47926 27.8866 6.49752 27.6661 6.51758C27.4448 6.53776 27.0468 6.6128 26.7813 6.68359C26.5158 6.75524 26.0987 6.88885 25.8556 6.98145C25.6128 7.07392 25.3593 7.19646 25.2921 7.25293C25.2256 7.309 25.1447 7.35521 25.1114 7.35645C25.0784 7.35806 24.8422 7.51811 24.588 7.71289C24.334 7.90667 24.0446 8.16018 23.9444 8.27637C23.8447 8.39141 23.6504 8.69491 23.5128 8.94922C23.3745 9.20344 23.1944 9.62973 23.1114 9.89551C22.9907 10.2835 22.9601 10.6328 22.9601 11.667C22.9601 12.6017 22.933 12.9796 22.8595 13.0488C22.8031 13.1004 22.6909 13.1187 22.6104 13.0889C22.5292 13.0598 22.4496 12.9635 22.4327 12.875C22.415 12.7845 22.3858 12.0963 22.3673 11.3447C22.3391 10.1879 22.3079 9.91099 22.1632 9.55371C22.0698 9.32103 21.9013 8.98567 21.7911 8.80859C21.68 8.6315 21.4363 8.32001 21.2481 8.11719C21.0598 7.91347 20.6885 7.61 20.4229 7.44336C20.1574 7.2767 19.8486 7.11292 19.7384 7.0791C19.6276 7.04536 19.5017 6.98989 19.4571 6.95605C19.4123 6.92212 19.1038 6.82072 18.7726 6.73145C18.441 6.6429 17.943 6.54807 17.6661 6.52148C17.1719 6.47397 17.1632 6.46899 17.1632 6.23145C17.1632 5.99713 17.1767 5.98857 17.6261 5.94434C17.8805 5.91851 18.3694 5.82844 18.712 5.74316C19.0544 5.65791 19.4164 5.54574 19.5167 5.49414C19.6165 5.44342 19.7535 5.37082 19.8194 5.33301C19.8857 5.29588 20.03 5.22491 20.1407 5.17676C20.2511 5.12827 20.5512 4.9206 20.8077 4.71387C21.0635 4.50781 21.2722 4.32056 21.2706 4.29883C21.2715 4.27407 21.3722 4.14875 21.4962 4.01758C21.6209 3.88466 21.7921 3.64944 21.8741 3.49414C21.957 3.3386 22.0932 3.03083 22.1768 2.80957C22.2894 2.51089 22.338 2.11953 22.3653 1.29785C22.3983 0.27439 22.4148 0.179842 22.5753 0.0712891ZM79.8487 6.81934C80.6171 6.81934 81.2346 7.07568 81.7003 7.58789C82.1892 8.1001 82.4337 8.71772 82.4337 9.43945C82.4335 10.1842 82.189 10.8131 81.7003 11.3252C81.2347 11.8139 80.6169 12.0586 79.8487 12.0586C79.1041 12.0584 78.4869 11.8139 77.9981 11.3252C77.5094 10.8131 77.2649 10.1842 77.2647 9.43945C77.2647 8.71785 77.5094 8.10005 77.9981 7.58789C78.4869 7.07591 79.104 6.81949 79.8487 6.81934Z" fill="white"/>
</svg>
